<svg width="35" height="39" viewBox="0 0 35 39" fill="none" xmlns="http://www.w3.org/2000/svg">
<path fill-rule="evenodd" clip-rule="evenodd" d="M10.2585 0.75H24.7251C30.7502 0.75 34.3587 4.40894 34.375 10.5182V28.4818C34.375 34.5911 30.7828 38.25 24.7415 38.25H19.3859C18.6991 38.1732 18.1792 37.5848 18.1792 36.8841C18.1792 36.1835 18.6991 35.595 19.3859 35.5182H24.7251C29.3296 35.5182 31.6482 33.1507 31.6482 28.4818V10.5182C31.6482 5.84934 29.3296 3.48179 24.7251 3.48179H10.2585C5.65403 3.48179 3.31912 5.84934 3.31912 10.5182V28.4818C3.31912 33.1507 5.65403 35.5182 10.2585 35.5182C10.9454 35.595 11.4652 36.1835 11.4652 36.8841C11.4652 37.5848 10.9454 38.1732 10.2585 38.25C4.23349 38.25 0.625 34.5911 0.625 28.4818V10.5182C0.625 4.39238 4.23349 0.75 10.2585 0.75ZM10.732 12.9354H15.8754C16.5622 12.8586 17.0821 12.2702 17.0821 11.5695C17.0821 10.8689 16.5622 10.2804 15.8754 10.2036H10.732C10.0452 10.2804 9.52535 10.8689 9.52535 11.5695C9.52535 12.2702 10.0452 12.8586 10.732 12.9354ZM24.2353 20.8659H10.732H10.7157C10.0289 20.7891 9.50902 20.2006 9.50902 19.5C9.50902 18.7994 10.0289 18.2109 10.7157 18.1341H24.2353C24.752 18.0763 25.2557 18.3233 25.5319 18.7698C25.8081 19.2163 25.8081 19.7837 25.5319 20.2302C25.2557 20.6767 24.752 20.9237 24.2353 20.8659ZM24.2353 28.7964H10.732H10.7157C9.97626 28.7964 9.37681 28.1885 9.37681 27.4387C9.37681 26.6889 9.97626 26.0811 10.7157 26.0811H24.2353C24.9748 26.0811 25.5742 26.6889 25.5742 27.4387C25.5742 28.1885 24.9748 28.7964 24.2353 28.7964Z" fill="#0A1B2C"/>
</svg>
