<svg width="14" height="24" viewBox="0 0 14 24" fill="none" xmlns="http://www.w3.org/2000/svg">
<path d="M5.70006 24V21.1333C4.52228 20.8667 3.50539 20.3556 2.64939 19.6C1.79339 18.8444 1.16583 17.7778 0.766724 16.4L3.23339 15.4C3.56672 16.4667 4.06139 17.2778 4.71739 17.8333C5.37339 18.3889 6.23428 18.6667 7.30006 18.6667C8.21117 18.6667 8.98361 18.4609 9.61739 18.0493C10.2512 17.6378 10.5676 16.9991 10.5667 16.1333C10.5667 15.3556 10.3223 14.7391 9.83339 14.284C9.3445 13.8289 8.21117 13.312 6.43339 12.7333C4.52228 12.1333 3.21117 11.4164 2.50006 10.5827C1.78895 9.74889 1.43339 8.73244 1.43339 7.53333C1.43339 6.08889 1.90006 4.96667 2.83339 4.16667C3.76672 3.36667 4.72228 2.91111 5.70006 2.8V0H8.36672V2.8C9.47783 2.97778 10.3947 3.38356 11.1174 4.01733C11.8401 4.65111 12.3676 5.42311 12.7001 6.33333L10.2334 7.4C9.96672 6.68889 9.58895 6.15556 9.10006 5.8C8.61117 5.44444 7.9445 5.26667 7.10006 5.26667C6.12228 5.26667 5.37783 5.48356 4.86672 5.91733C4.35561 6.35111 4.10006 6.88978 4.10006 7.53333C4.10006 8.26667 4.43339 8.84444 5.10006 9.26667C5.76672 9.68889 6.92228 10.1333 8.56672 10.6C10.1001 11.0444 11.2614 11.7502 12.0507 12.7173C12.8401 13.6844 13.2343 14.8009 13.2334 16.0667C13.2334 17.6444 12.7667 18.8444 11.8334 19.6667C10.9001 20.4889 9.7445 21 8.36672 21.2V24H5.70006Z" fill="#F8F8F8"/>
</svg>
