<svg width="40" height="40" viewBox="0 0 40 40" fill="none" xmlns="http://www.w3.org/2000/svg">
<path d="M37.1912 17.4393C37.0381 13.0762 35.2712 8.99621 32.1687 5.89371C28.9169 2.64121 24.595 0.850586 20 0.850586C10.7194 0.850586 3.13623 8.23746 2.80936 17.4393C1.39311 18.0687 0.401855 19.4862 0.401855 21.1337V25.6725C0.401855 27.9012 2.21498 29.715 4.44436 29.715C5.88686 29.715 7.05998 28.5418 7.05998 27.0993V19.7062C7.05998 18.3518 6.02123 17.2475 4.70061 17.1162C5.18811 9.09934 11.8619 2.72559 20 2.72559C24.095 2.72559 27.9456 4.32184 30.8437 7.21996C33.505 9.88121 35.0625 13.35 35.2969 17.1168C33.9775 17.2493 32.9406 18.3531 32.9406 19.7062V27.0987C32.9406 28.4643 33.9956 29.5756 35.3319 29.6912V31.5593C35.3319 33.6631 33.62 35.3743 31.5162 35.3743H28.6906C28.5519 34.9781 28.3344 34.6118 28.0294 34.3081C27.495 33.7712 26.7825 33.4756 26.0237 33.4756H23.1112C22.6931 33.4756 22.2919 33.5643 21.9244 33.7356C20.9219 34.1962 20.2744 35.2075 20.2744 36.3118C20.2744 37.0706 20.57 37.7831 21.1056 38.3162C21.6412 38.8531 22.3537 39.1487 23.1112 39.1487H26.0237C27.2312 39.1487 28.2956 38.3681 28.6925 37.2493H31.5162C34.6544 37.2493 37.2069 34.6968 37.2069 31.5593V29.3575C38.6144 28.7243 39.5981 27.3118 39.5981 25.6712V21.1325C39.5981 19.4862 38.6069 18.0687 37.1912 17.4393ZM5.18436 19.7062V27.0987C5.18436 27.5068 4.85248 27.8393 4.44373 27.8393C3.24873 27.8393 2.27623 26.8668 2.27623 25.6718V21.1331C2.27623 19.9375 3.24873 18.9656 4.44373 18.9656C4.85248 18.9656 5.18436 19.2981 5.18436 19.7062ZM26.9644 36.5131C26.8712 36.9543 26.475 37.275 26.0231 37.275H23.1106C22.8544 37.275 22.6137 37.175 22.43 36.9912C22.2487 36.8106 22.1487 36.5693 22.1487 36.3131C22.1487 35.9387 22.3681 35.5968 22.7119 35.4387C22.8344 35.3812 22.9687 35.3518 23.1106 35.3518H26.0231C26.2794 35.3518 26.52 35.4512 26.7031 35.635C26.8844 35.8156 26.9844 36.0568 26.9844 36.3131C26.985 36.3818 26.9775 36.4506 26.9644 36.5131ZM37.7231 25.6718C37.7231 26.8668 36.7506 27.8393 35.5556 27.8393C35.1475 27.8393 34.815 27.5075 34.815 27.0987V19.7062C34.815 19.2981 35.1469 18.9656 35.5556 18.9656C36.7506 18.9656 37.7231 19.9381 37.7231 21.1331V25.6718Z" fill="#0A1B2C"/>
</svg>
