<svg width="14" height="14" viewBox="0 0 14 14" fill="none" xmlns="http://www.w3.org/2000/svg">
<path fill-rule="evenodd" clip-rule="evenodd" d="M11.6427 2.33805C10.4148 1.1087 8.78178 0.431385 7.04206 0.430664C3.4572 0.430664 0.539639 3.34814 0.538197 6.93396C0.537716 8.08024 0.837162 9.1992 1.40633 10.1855L0.483643 13.5557L3.93144 12.6512C4.88145 13.1695 5.95098 13.4426 7.03941 13.4429H7.04214C10.6266 13.4429 13.5445 10.5252 13.5458 6.93917C13.5466 5.20129 12.8707 3.56732 11.6427 2.33805ZM7.04206 12.3445H7.03981C6.06986 12.3441 5.11857 12.0834 4.28848 11.591L4.09118 11.4738L2.0452 12.0105L2.5913 10.0157L2.46273 9.81123C1.92159 8.95054 1.63585 7.95575 1.63633 6.93436C1.63745 3.95392 4.0625 1.52911 7.04422 1.52911C8.4881 1.52959 9.84538 2.0926 10.866 3.11438C11.8865 4.13617 12.4483 5.49433 12.4478 6.93877C12.4465 9.91945 10.0216 12.3445 7.04206 12.3445ZM10.0072 8.29589C9.84474 8.2145 9.04573 7.82149 8.89673 7.76717C8.74789 7.71294 8.63942 7.68594 8.5312 7.84856C8.42281 8.01118 8.11143 8.37728 8.01658 8.48567C7.92173 8.59414 7.82704 8.60775 7.6645 8.52636C7.50196 8.44505 6.97837 8.27338 6.35761 7.71975C5.87455 7.28885 5.54843 6.75668 5.45358 6.59406C5.35889 6.43128 5.45278 6.35181 5.52488 6.26241C5.7008 6.04396 5.87696 5.81493 5.93111 5.70654C5.98534 5.59807 5.95819 5.50314 5.91749 5.42183C5.87696 5.34052 5.55196 4.54064 5.41657 4.21516C5.28455 3.89841 5.15069 3.94118 5.05088 3.93622C4.95619 3.93149 4.8478 3.93053 4.73941 3.93053C4.63111 3.93053 4.45503 3.97115 4.30603 4.13393C4.1571 4.29663 3.73734 4.68972 3.73734 5.4896C3.73734 6.28949 4.31964 7.06222 4.40088 7.17068C4.48211 7.27915 5.54683 8.92058 7.17696 9.62441C7.56469 9.792 7.86734 9.8919 8.10342 9.9668C8.49274 10.0905 8.8469 10.073 9.12696 10.0312C9.43923 9.9845 10.0883 9.63803 10.2239 9.25848C10.3593 8.87884 10.3593 8.55352 10.3186 8.48567C10.278 8.4179 10.1697 8.37728 10.0072 8.29589Z" fill="#0A1B2C"/>
</svg>
